<svg xmlns="http://www.w3.org/2000/svg" width="24" height="24" viewBox="0 0 24 24" fill="none" stroke="currentColor" stroke-width="1.75" stroke-linecap="round" stroke-linejoin="round">
  <path d="M12 7.1c-4.9 0-8 2.95-8 6.55 0 4.25 3.55 7.1 8 7.1s8-2.85 8-7.1c0-3.6-3.1-6.55-8-6.55Z"/>
  <path d="M12 7.1c-.2-2.1 1.25-3.25 3.35-3.35-.25 1.55-1.4 2.75-3.35 3.35Z"/>
  <path d="M11.9 7.1C10.6 5.35 8.75 5 7.15 5.6c1.05 1.25 2.5 1.75 4.75 1.5Z"/>
  <path d="M8.4 10.75c.8-.65 1.85-.95 3.1-.95"/>
</svg>
