<svg width="32" height="32" viewBox="0 0 32 32" fill="none" xmlns="http://www.w3.org/2000/svg">
  <rect width="32" height="32" rx="8" fill="#7C9885"/>
  <line x1="16" y1="7.5" x2="16" y2="24.5" stroke="white" stroke-width="1.8" stroke-linecap="round"/>
  <path d="M16 7.5C15.5 6 14 5 12.2 5C10 5 8.5 6.5 8.5 8.8C8.5 9.8 9 10.7 9.6 11.3C8.7 11.8 8 13 8 14.3C8 16 9.1 17.3 10.6 17.7C10.4 18.1 10.3 18.6 10.3 19.2C10.3 20.7 11.3 21.8 12.8 21.8" stroke="white" stroke-width="1.8" stroke-linecap="round" fill="none"/>
  <path d="M16 7.5C16.5 6 18 5 19.8 5C22 5 23.5 6.5 23.5 8.8C23.5 9.8 23 10.7 22.4 11.3C23.3 11.8 24 13 24 14.3C24 16 22.9 17.3 21.4 17.7C21.6 18.1 21.7 18.6 21.7 19.2C21.7 20.7 20.7 21.8 19.2 21.8" stroke="white" stroke-width="1.8" stroke-linecap="round" fill="none"/>
</svg>
